<svg xmlns="http://www.w3.org/2000/svg" viewBox="0 0 1920 1080" role="img" aria-label="Temporary poster preview">
  <defs>
    <linearGradient id="sky" x1="0" y1="0" x2="1" y2="1">
      <stop offset="0" stop-color="#0b2745"/>
      <stop offset="0.45" stop-color="#155f92"/>
      <stop offset="1" stop-color="#f2763b"/>
    </linearGradient>
    <radialGradient id="flare" cx="72%" cy="30%" r="38%">
      <stop offset="0" stop-color="#fff6bf" stop-opacity="0.95"/>
      <stop offset="0.45" stop-color="#ffb65a" stop-opacity="0.42"/>
      <stop offset="1" stop-color="#ff7b3b" stop-opacity="0"/>
    </radialGradient>
    <linearGradient id="ground" x1="0" y1="0" x2="1" y2="0">
      <stop offset="0" stop-color="#12251c"/>
      <stop offset="0.55" stop-color="#335f33"/>
      <stop offset="1" stop-color="#2b1d16"/>
    </linearGradient>
    <filter id="softShadow" x="-20%" y="-20%" width="140%" height="140%">
      <feDropShadow dx="0" dy="22" stdDeviation="24" flood-color="#050911" flood-opacity="0.34"/>
    </filter>
    <filter id="logoShadow" x="-20%" y="-20%" width="140%" height="140%">
      <feDropShadow dx="0" dy="8" stdDeviation="5" flood-color="#240b04" flood-opacity="0.58"/>
    </filter>
  </defs>
  <rect width="1920" height="1080" fill="url(#sky)"/>
  <rect width="1920" height="1080" fill="url(#flare)"/>
  <path d="M0 690 C210 620 400 650 560 600 C760 538 910 570 1090 506 C1300 432 1505 464 1920 330 L1920 1080 L0 1080 Z" fill="#10202b" opacity="0.64"/>
  <path d="M0 760 C215 700 455 720 680 665 C970 582 1198 660 1432 560 C1590 492 1725 470 1920 455 L1920 1080 L0 1080 Z" fill="url(#ground)"/>
  <path d="M0 820 C310 760 520 810 780 750 C1048 688 1305 740 1580 675 C1748 635 1840 640 1920 620 L1920 1080 L0 1080 Z" fill="#0f1513" opacity="0.52"/>
  <g opacity="0.36">
    <circle cx="178" cy="748" r="52" fill="#f0472e"/>
    <circle cx="276" cy="805" r="84" fill="#d63a28"/>
    <circle cx="1654" cy="748" r="68" fill="#df4127"/>
    <circle cx="1754" cy="828" r="96" fill="#c83222"/>
  </g>
  <g filter="url(#softShadow)">
    <ellipse cx="960" cy="858" rx="420" ry="92" fill="#060809" opacity="0.3"/>
    <circle cx="835" cy="555" r="94" fill="#ffd69a"/>
    <circle cx="818" cy="530" r="112" fill="#fff0cb"/>
    <circle cx="772" cy="545" r="54" fill="#fff7dd"/>
    <circle cx="875" cy="548" r="52" fill="#fff7dd"/>
    <rect x="740" y="575" width="175" height="250" rx="54" fill="#ffb24a"/>
    <circle cx="828" cy="626" r="58" fill="#ff7b39"/>
    <rect x="782" y="660" width="98" height="155" rx="20" fill="#fff2d2"/>
    <circle cx="803" cy="628" r="11" fill="#231c20"/>
    <circle cx="856" cy="628" r="11" fill="#231c20"/>
    <path d="M796 676 Q831 710 868 676" fill="none" stroke="#642016" stroke-width="14" stroke-linecap="round"/>
    <path d="M918 685 L1160 520" stroke="#ffd44f" stroke-width="34" stroke-linecap="round"/>
    <path d="M924 685 L1164 520" stroke="#fff2a2" stroke-width="10" stroke-linecap="round"/>
    <circle cx="1178" cy="505" r="72" fill="#f45ba1"/>
    <path d="M1250 452 C1348 420 1410 474 1384 552 C1284 542 1232 520 1250 452Z" fill="#ee62b2"/>
    <circle cx="1212" cy="582" r="104" fill="#f9f6ea"/>
    <circle cx="1210" cy="468" r="74" fill="#f6f0df"/>
    <path d="M1155 445 C1188 398 1235 395 1265 440" fill="#4b2c18"/>
    <rect x="1172" y="524" width="75" height="26" rx="13" fill="#12131a" opacity="0.88"/>
    <path d="M1268 640 Q1334 674 1370 622" fill="none" stroke="#2d1f18" stroke-width="20" stroke-linecap="round"/>
  </g>
  <g opacity="0.82">
    <path d="M95 956 C250 885 390 894 500 930" fill="none" stroke="#62a14d" stroke-width="34" stroke-linecap="round"/>
    <path d="M1380 942 C1540 880 1700 895 1835 930" fill="none" stroke="#5ca348" stroke-width="34" stroke-linecap="round"/>
    <path d="M260 935 L430 760" stroke="#22110b" stroke-width="34" stroke-linecap="round"/>
    <path d="M1545 935 L1398 742" stroke="#22110b" stroke-width="34" stroke-linecap="round"/>
  </g>
  <g filter="url(#logoShadow)">
    <path d="M690 88 C820 36 1080 38 1225 92 C1256 104 1266 145 1244 168 C1112 303 794 303 670 168 C648 144 658 101 690 88Z" fill="#fff1bc"/>
    <path d="M708 106 C835 64 1066 62 1205 106" fill="none" stroke="#f15a24" stroke-width="23" stroke-linecap="round"/>
    <text x="960" y="172" text-anchor="middle" font-family="Arial Black, Arial, sans-serif" font-size="86" fill="#ffcf35" stroke="#451308" stroke-width="14" paint-order="stroke">PIZZA</text>
    <text x="960" y="232" text-anchor="middle" font-family="Arial Black, Arial, sans-serif" font-size="46" fill="#ffffff" stroke="#451308" stroke-width="8" paint-order="stroke">KITCHEN ADVENTURES</text>
  </g>
  <g>
    <text x="118" y="214" font-family="Arial Black, Arial, sans-serif" font-size="52" fill="#ffffff" opacity="0.96">TEST PREVIEW</text>
    <text x="118" y="286" font-family="Arial Black, Arial, sans-serif" font-size="96" fill="#ffffff" letter-spacing="-2">HUNT THE BEAST</text>
    <text x="122" y="345" font-family="Arial, sans-serif" font-size="32" fill="#d8eeff">Temporary image for viewer and edit workflow.</text>
  </g>
  <path d="M550 875 C690 800 810 830 955 775 C1110 718 1225 765 1378 702" fill="none" stroke="#ffc247" stroke-width="8" stroke-linecap="round" opacity="0.82"/>
  <g opacity="0.82">
    <circle cx="690" cy="838" r="8" fill="#ffd868"/>
    <circle cx="1098" cy="728" r="7" fill="#fff1a8"/>
    <circle cx="1220" cy="705" r="10" fill="#ffd868"/>
    <circle cx="1340" cy="660" r="6" fill="#fff1a8"/>
  </g>
</svg>
