<svg xmlns="http://www.w3.org/2000/svg" viewBox="0 0 1024 1024" role="img" aria-labelledby="title desc">
  <title id="title">Synthetic Collab Partner Character</title>
  <desc id="desc">A fictional sundae ranger mascot used only as a collabCharacter visual reference fixture. It contains no readable brand text or logo.</desc>
  <defs>
    <radialGradient id="bg" cx="50%" cy="34%" r="70%">
      <stop offset="0%" stop-color="#fff7d6"/>
      <stop offset="55%" stop-color="#ffd8ef"/>
      <stop offset="100%" stop-color="#8bd7ff"/>
    </radialGradient>
    <linearGradient id="body" x1="32%" x2="76%" y1="18%" y2="88%">
      <stop offset="0%" stop-color="#fffaf1"/>
      <stop offset="42%" stop-color="#ffd1e8"/>
      <stop offset="100%" stop-color="#7dd3fc"/>
    </linearGradient>
    <linearGradient id="syrup" x1="20%" x2="88%" y1="18%" y2="82%">
      <stop offset="0%" stop-color="#ff7ab6"/>
      <stop offset="100%" stop-color="#ef4444"/>
    </linearGradient>
    <filter id="softShadow" x="-20%" y="-20%" width="140%" height="140%">
      <feDropShadow dx="0" dy="22" stdDeviation="18" flood-color="#3b1a4d" flood-opacity=".28"/>
    </filter>
  </defs>
  <rect width="1024" height="1024" fill="url(#bg)"/>
  <circle cx="205" cy="190" r="82" fill="#ffffff" opacity=".52"/>
  <circle cx="850" cy="238" r="120" fill="#ffffff" opacity=".36"/>
  <circle cx="760" cy="792" r="92" fill="#ffffff" opacity=".28"/>
  <g id="sundae-ranger" filter="url(#softShadow)">
    <path d="M518 178c-121 0-223 84-249 197-8 34-2 67 14 94-41 34-67 84-67 141 0 110 96 200 214 200h163c124 0 224-94 224-210 0-57-24-109-64-147 11-25 14-53 7-81-27-109-129-194-242-194z" fill="url(#body)" stroke="#2c2f52" stroke-width="22" stroke-linejoin="round"/>
    <path d="M309 390c26-95 108-157 210-157 94 0 181 65 208 154 8 27-7 55-36 61-33 7-58-14-82-34-25-20-49-39-84-33-37 7-50 39-72 61-23 23-58 38-93 22-29-13-69-32-51-74z" fill="#fff7ed" stroke="#2c2f52" stroke-width="18" stroke-linejoin="round"/>
    <path d="M302 384c44 42 91 43 137 3 29-25 59-33 91-9 33 25 66 28 98 9 27-16 52-20 78-3 12 8 31 4 40-8 15-20 4-49-23-73-42-38-102-65-169-75-82-12-162 10-211 64-31 35-48 64-41 92z" fill="url(#syrup)" opacity=".92"/>
    <circle cx="418" cy="500" r="28" fill="#2c2f52"/>
    <circle cx="615" cy="500" r="28" fill="#2c2f52"/>
    <circle cx="410" cy="491" r="8" fill="#ffffff"/>
    <circle cx="606" cy="491" r="8" fill="#ffffff"/>
    <path d="M457 584c34 29 79 29 116 0" fill="none" stroke="#2c2f52" stroke-width="22" stroke-linecap="round"/>
    <path d="M281 554c-66 24-117 74-136 138-7 25 11 50 37 50 39 0 69-39 96-82 20-31 42-58 73-72z" fill="#80d8ff" stroke="#2c2f52" stroke-width="18" stroke-linejoin="round"/>
    <path d="M736 552c70 19 128 69 150 136 8 25-9 51-35 53-39 2-72-36-103-78-22-30-45-57-77-69z" fill="#ffc6dd" stroke="#2c2f52" stroke-width="18" stroke-linejoin="round"/>
    <path d="M395 799c-30 55-53 94-39 118 15 27 69 17 104-15 25-24 34-61 27-105z" fill="#ffcf6e" stroke="#2c2f52" stroke-width="18" stroke-linejoin="round"/>
    <path d="M618 798c33 55 58 92 45 117-14 28-69 19-106-13-28-24-38-60-31-104z" fill="#ffcf6e" stroke="#2c2f52" stroke-width="18" stroke-linejoin="round"/>
    <path d="M505 130l36 70 77 11-56 54 13 76-70-37-69 37 13-76-56-54 77-11z" fill="#ffe35f" stroke="#2c2f52" stroke-width="16" stroke-linejoin="round"/>
    <circle cx="377" cy="330" r="16" fill="#ffe35f"/>
    <circle cx="478" cy="300" r="14" fill="#7dd3fc"/>
    <circle cx="600" cy="328" r="16" fill="#fef3c7"/>
    <circle cx="678" cy="384" r="14" fill="#22c55e"/>
    <path d="M210 768c63 52 167 86 292 86 127 0 237-35 306-91" fill="none" stroke="#ffffff" stroke-width="18" stroke-linecap="round" opacity=".48"/>
  </g>
</svg>
